<svg version="1.1" xmlns="http://www.w3.org/2000/svg" xmlns:xlink="http://www.w3.org/1999/xlink" width="796" height="598"><defs/><g><g transform="translate(-214,-54) scale(1,1)"><rect fill="#C0C0C0" stroke="none" x="231" y="183" width="165.0888671875" height="282" opacity="0.2"/></g><g transform="translate(-214,-54) scale(1,1)"><rect fill="#ffffff" stroke="none" x="224" y="176" width="165.0888671875" height="282"/></g><g transform="translate(-214,-54) scale(1,1)"><path fill="none" stroke="#000000" d="M 224 176 L 389.0888671875 176 L 389.0888671875 458 L 224 458 L 224 176 Z Z" stroke-miterlimit="10"/></g><g transform="translate(-214,-54) scale(1,1)"><path fill="none" stroke="#000000" d="M 224 201 L 389.0888671875 201" stroke-miterlimit="10"/></g><g transform="translate(-214,-54) scale(1,1)"><path fill="none" stroke="#000000" d="M 224 449 L 389.0888671875 449" stroke-miterlimit="10"/></g><g transform="translate(-214,-54) scale(1,1)"><g><path fill="none" stroke="none"/><text fill="#000000" stroke="none" font-family="Arial" font-size="13px" font-style="normal" font-weight="bold" text-decoration="none" x="279.823974609375" y="194">Donneur</text></g></g><g transform="translate(-214,-54) scale(1,1)"><g><path fill="none" stroke="none"/><text fill="#000000" stroke="none" font-family="Arial" font-size="13px" font-style="normal" font-weight="normal" text-decoration="none" x="229" y="217">-id: int</text></g></g><g transform="translate(-214,-54) scale(1,1)"><g><path fill="none" stroke="none"/><text fill="#000000" stroke="none" font-family="Arial" font-size="13px" font-style="normal" font-weight="normal" text-decoration="none" x="229" y="232">-nom: String</text></g></g><g transform="translate(-214,-54) scale(1,1)"><g><path fill="none" stroke="none"/><text fill="#000000" stroke="none" font-family="Arial" font-size="13px" font-style="normal" font-weight="normal" text-decoration="none" x="229" y="247">-prenom: String</text></g></g><g transform="translate(-214,-54) scale(1,1)"><g><path fill="none" stroke="none"/><text fill="#000000" stroke="none" font-family="Arial" font-size="13px" font-style="normal" font-weight="normal" text-decoration="none" x="229" y="262">-cin: String</text></g></g><g transform="translate(-214,-54) scale(1,1)"><g><path fill="none" stroke="none"/><text fill="#000000" stroke="none" font-family="Arial" font-size="13px" font-style="normal" font-weight="normal" text-decoration="none" x="229" y="277">-telephone: String</text></g></g><g transform="translate(-214,-54) scale(1,1)"><g><path fill="none" stroke="none"/><text fill="#000000" stroke="none" font-family="Arial" font-size="13px" font-style="normal" font-weight="normal" text-decoration="none" x="229" y="292">-dateNaissance: LocalDate</text></g></g><g transform="translate(-214,-54) scale(1,1)"><g><path fill="none" stroke="none"/><text fill="#000000" stroke="none" font-family="Arial" font-size="13px" font-style="normal" font-weight="normal" text-decoration="none" x="229" y="307">-poids: Double</text></g></g><g transform="translate(-214,-54) scale(1,1)"><g><path fill="none" stroke="none"/><text fill="#000000" stroke="none" font-family="Arial" font-size="13px" font-style="normal" font-weight="normal" text-decoration="none" x="229" y="322">-sexe: String</text></g></g><g transform="translate(-214,-54) scale(1,1)"><g><path fill="none" stroke="none"/><text fill="#000000" stroke="none" font-family="Arial" font-size="13px" font-style="normal" font-weight="normal" text-decoration="none" x="229" y="337">-groupeSanguin: String</text></g></g><g transform="translate(-214,-54) scale(1,1)"><g><path fill="none" stroke="none"/><text fill="#000000" stroke="none" font-family="Arial" font-size="13px" font-style="normal" font-weight="normal" text-decoration="none" x="229" y="352">-status: String</text></g></g><g transform="translate(-214,-54) scale(1,1)"><g><path fill="none" stroke="none"/><text fill="#000000" stroke="none" font-family="Arial" font-size="13px" font-style="normal" font-weight="normal" text-decoration="none" x="229" y="367">-hepatiteC: Boolean</text></g></g><g transform="translate(-214,-54) scale(1,1)"><g><path fill="none" stroke="none"/><text fill="#000000" stroke="none" font-family="Arial" font-size="13px" font-style="normal" font-weight="normal" text-decoration="none" x="229" y="382">-hepatiteB: Boolean</text></g></g><g transform="translate(-214,-54) scale(1,1)"><g><path fill="none" stroke="none"/><text fill="#000000" stroke="none" font-family="Arial" font-size="13px" font-style="normal" font-weight="normal" text-decoration="none" x="229" y="397">-Vih: Boolean</text></g></g><g transform="translate(-214,-54) scale(1,1)"><g><path fill="none" stroke="none"/><text fill="#000000" stroke="none" font-family="Arial" font-size="13px" font-style="normal" font-weight="normal" text-decoration="none" x="229" y="412">-diabete: Boolean</text></g></g><g transform="translate(-214,-54) scale(1,1)"><g><path fill="none" stroke="none"/><text fill="#000000" stroke="none" font-family="Arial" font-size="13px" font-style="normal" font-weight="normal" text-decoration="none" x="229" y="427">-grossesse: Boolean</text></g></g><g transform="translate(-214,-54) scale(1,1)"><g><path fill="none" stroke="none"/><text fill="#000000" stroke="none" font-family="Arial" font-size="13px" font-style="normal" font-weight="normal" text-decoration="none" x="229" y="442">-allaitement: Boolean</text></g></g><g transform="translate(-214,-54) scale(1,1)"><rect fill="#C0C0C0" stroke="none" x="799" y="231" width="208" height="207" opacity="0.2"/></g><g transform="translate(-214,-54) scale(1,1)"><rect fill="#ffffff" stroke="none" x="792" y="224" width="208" height="207"/></g><g transform="translate(-214,-54) scale(1,1)"><path fill="none" stroke="#000000" d="M 792 224 L 1000 224 L 1000 431 L 792 431 L 792 224 Z Z" stroke-miterlimit="10"/></g><g transform="translate(-214,-54) scale(1,1)"><path fill="none" stroke="#000000" d="M 792 249 L 1000 249" stroke-miterlimit="10"/></g><g transform="translate(-214,-54) scale(1,1)"><path fill="none" stroke="#000000" d="M 792 422 L 1000 422" stroke-miterlimit="10"/></g><g transform="translate(-214,-54) scale(1,1)"><g><path fill="none" stroke="none"/><text fill="#000000" stroke="none" font-family="Arial" font-size="13px" font-style="normal" font-weight="bold" text-decoration="none" x="866.73095703125" y="242">Receveur</text></g></g><g transform="translate(-214,-54) scale(1,1)"><g><path fill="none" stroke="none"/><text fill="#000000" stroke="none" font-family="Arial" font-size="13px" font-style="normal" font-weight="normal" text-decoration="none" x="797" y="265">-id: Long</text></g></g><g transform="translate(-214,-54) scale(1,1)"><g><path fill="none" stroke="none"/><text fill="#000000" stroke="none" font-family="Arial" font-size="13px" font-style="normal" font-weight="normal" text-decoration="none" x="797" y="280">-nom: String</text></g></g><g transform="translate(-214,-54) scale(1,1)"><g><path fill="none" stroke="none"/><text fill="#000000" stroke="none" font-family="Arial" font-size="13px" font-style="normal" font-weight="normal" text-decoration="none" x="797" y="295">-prenom: String</text></g></g><g transform="translate(-214,-54) scale(1,1)"><g><path fill="none" stroke="none"/><text fill="#000000" stroke="none" font-family="Arial" font-size="13px" font-style="normal" font-weight="normal" text-decoration="none" x="797" y="310">-cin: String</text></g></g><g transform="translate(-214,-54) scale(1,1)"><g><path fill="none" stroke="none"/><text fill="#000000" stroke="none" font-family="Arial" font-size="13px" font-style="normal" font-weight="normal" text-decoration="none" x="797" y="325">-telephone: String</text></g></g><g transform="translate(-214,-54) scale(1,1)"><g><path fill="none" stroke="none"/><text fill="#000000" stroke="none" font-family="Arial" font-size="13px" font-style="normal" font-weight="normal" text-decoration="none" x="797" y="340">-dateNaissance: LocalDate</text></g></g><g transform="translate(-214,-54) scale(1,1)"><g><path fill="none" stroke="none"/><text fill="#000000" stroke="none" font-family="Arial" font-size="13px" font-style="normal" font-weight="normal" text-decoration="none" x="797" y="355">-sexe: String</text></g></g><g transform="translate(-214,-54) scale(1,1)"><g><path fill="none" stroke="none"/><text fill="#000000" stroke="none" font-family="Arial" font-size="13px" font-style="normal" font-weight="normal" text-decoration="none" x="797" y="370">-groupeSanguin: String</text></g></g><g transform="translate(-214,-54) scale(1,1)"><g><path fill="none" stroke="none"/><text fill="#000000" stroke="none" font-family="Arial" font-size="13px" font-style="normal" font-weight="normal" text-decoration="none" x="797" y="385">-besoinPoches: int</text></g></g><g transform="translate(-214,-54) scale(1,1)"><g><path fill="none" stroke="none"/><text fill="#000000" stroke="none" font-family="Arial" font-size="13px" font-style="normal" font-weight="normal" text-decoration="none" x="797" y="400">-pochesRecues: int</text></g></g><g transform="translate(-214,-54) scale(1,1)"><g><path fill="none" stroke="none"/><text fill="#000000" stroke="none" font-family="Arial" font-size="13px" font-style="normal" font-weight="normal" text-decoration="none" x="797" y="415">-satisfait: boolean</text></g></g><g transform="translate(-214,-54) scale(1,1)"><path fill="none" stroke="#000000" d="M 390 318 L 791 325" stroke-miterlimit="10"/></g><g transform="translate(-214,-54) scale(1,1)"><g><path fill="none" stroke="none"/><text fill="#000000" stroke="none" font-family="Arial" font-size="13px" font-style="normal" font-weight="normal" text-decoration="none" x="408.5" y="335">*</text></g></g><g transform="translate(-214,-54) scale(1,1)"><g><path fill="none" stroke="none"/><text fill="#000000" stroke="none" font-family="Arial" font-size="13px" font-style="normal" font-weight="normal" text-decoration="none" x="765.5" y="342">1</text></g></g><g transform="translate(-214,-54) scale(1,1)"><rect fill="#C0C0C0" stroke="none" x="543" y="487" width="112" height="162" opacity="0.2"/></g><g transform="translate(-214,-54) scale(1,1)"><rect fill="#ffffff" stroke="none" x="536" y="480" width="112" height="162"/></g><g transform="translate(-214,-54) scale(1,1)"><path fill="none" stroke="#000000" d="M 536 480 L 648 480 L 648 642 L 536 642 L 536 480 Z Z" stroke-miterlimit="10"/></g><g transform="translate(-214,-54) scale(1,1)"><path fill="none" stroke="#000000" d="M 536 505 L 648 505" stroke-miterlimit="10"/></g><g transform="translate(-214,-54) scale(1,1)"><path fill="none" stroke="#000000" d="M 536 633 L 648 633" stroke-miterlimit="10"/></g><g transform="translate(-214,-54) scale(1,1)"><g><path fill="none" stroke="none"/><text fill="#000000" stroke="none" font-family="Arial" font-size="13px" font-style="normal" font-weight="bold" text-decoration="none" x="543.25" y="498">GroupeSanguin</text></g></g><g transform="translate(-214,-54) scale(1,1)"><g><path fill="none" stroke="none"/><text fill="#000000" stroke="none" font-family="Arial" font-size="13px" font-style="normal" font-weight="normal" text-decoration="none" x="541" y="521">-O_NEGATIF</text></g></g><g transform="translate(-214,-54) scale(1,1)"><g><path fill="none" stroke="none"/><text fill="#000000" stroke="none" font-family="Arial" font-size="13px" font-style="normal" font-weight="normal" text-decoration="none" x="541" y="536">-O_POSITIF</text></g></g><g transform="translate(-214,-54) scale(1,1)"><g><path fill="none" stroke="none"/><text fill="#000000" stroke="none" font-family="Arial" font-size="13px" font-style="normal" font-weight="normal" text-decoration="none" x="541" y="551">-A_NEGATIF</text></g></g><g transform="translate(-214,-54) scale(1,1)"><g><path fill="none" stroke="none"/><text fill="#000000" stroke="none" font-family="Arial" font-size="13px" font-style="normal" font-weight="normal" text-decoration="none" x="541" y="566">-A_POSITIF</text></g></g><g transform="translate(-214,-54) scale(1,1)"><g><path fill="none" stroke="none"/><text fill="#000000" stroke="none" font-family="Arial" font-size="13px" font-style="normal" font-weight="normal" text-decoration="none" x="541" y="581">-B_NEGATIF</text></g></g><g transform="translate(-214,-54) scale(1,1)"><g><path fill="none" stroke="none"/><text fill="#000000" stroke="none" font-family="Arial" font-size="13px" font-style="normal" font-weight="normal" text-decoration="none" x="541" y="596">-B_POSITIF</text></g></g><g transform="translate(-214,-54) scale(1,1)"><g><path fill="none" stroke="none"/><text fill="#000000" stroke="none" font-family="Arial" font-size="13px" font-style="normal" font-weight="normal" text-decoration="none" x="541" y="611">-AB_NEGATIF</text></g></g><g transform="translate(-214,-54) scale(1,1)"><g><path fill="none" stroke="none"/><text fill="#000000" stroke="none" font-family="Arial" font-size="13px" font-style="normal" font-weight="normal" text-decoration="none" x="541" y="626">-AB_POSITIF</text></g></g><g transform="translate(-214,-54) scale(1,1)"><rect fill="#C0C0C0" stroke="none" x="543" y="71" width="96" height="104" opacity="0.2"/></g><g transform="translate(-214,-54) scale(1,1)"><rect fill="#ffffff" stroke="none" x="536" y="64" width="96" height="104"/></g><g transform="translate(-214,-54) scale(1,1)"><path fill="none" stroke="#000000" d="M 536 64 L 632 64 L 632 168 L 536 168 L 536 64 Z Z" stroke-miterlimit="10"/></g><g transform="translate(-214,-54) scale(1,1)"><path fill="none" stroke="#000000" d="M 536 89 L 632 89" stroke-miterlimit="10"/></g><g transform="translate(-214,-54) scale(1,1)"><path fill="none" stroke="#000000" d="M 536 127 L 632 127" stroke-miterlimit="10"/></g><g transform="translate(-214,-54) scale(1,1)"><g><path fill="none" stroke="none"/><text fill="#000000" stroke="none" font-family="Arial" font-size="13px" font-style="normal" font-weight="bold" text-decoration="none" x="568.819580078125" y="82">Sexe</text></g></g><g transform="translate(-214,-54) scale(1,1)"><g><path fill="none" stroke="none"/><text fill="#000000" stroke="none" font-family="Arial" font-size="13px" font-style="normal" font-weight="normal" text-decoration="none" x="541" y="105">-MASCULIN</text></g></g><g transform="translate(-214,-54) scale(1,1)"><g><path fill="none" stroke="none"/><text fill="#000000" stroke="none" font-family="Arial" font-size="13px" font-style="normal" font-weight="normal" text-decoration="none" x="541" y="120">-FEMININ</text></g></g><g transform="translate(-214,-54) scale(1,1)"><rect fill="#C0C0C0" stroke="none" x="255" y="559" width="127.47265625" height="87" opacity="0.2"/></g><g transform="translate(-214,-54) scale(1,1)"><rect fill="#ffffff" stroke="none" x="248" y="552" width="127.47265625" height="87"/></g><g transform="translate(-214,-54) scale(1,1)"><path fill="none" stroke="#000000" d="M 248 552 L 375.47265625 552 L 375.47265625 639 L 248 639 L 248 552 Z Z" stroke-miterlimit="10"/></g><g transform="translate(-214,-54) scale(1,1)"><path fill="none" stroke="#000000" d="M 248 577 L 375.47265625 577" stroke-miterlimit="10"/></g><g transform="translate(-214,-54) scale(1,1)"><path fill="none" stroke="#000000" d="M 248 630 L 375.47265625 630" stroke-miterlimit="10"/></g><g transform="translate(-214,-54) scale(1,1)"><g><path fill="none" stroke="none"/><text fill="#000000" stroke="none" font-family="Arial" font-size="13px" font-style="normal" font-weight="bold" text-decoration="none" x="254.32177734375" y="570">StatutDisponibilite</text></g></g><g transform="translate(-214,-54) scale(1,1)"><g><path fill="none" stroke="none"/><text fill="#000000" stroke="none" font-family="Arial" font-size="13px" font-style="normal" font-weight="normal" text-decoration="none" x="253" y="593">-DISPONIBLE</text></g></g><g transform="translate(-214,-54) scale(1,1)"><g><path fill="none" stroke="none"/><text fill="#000000" stroke="none" font-family="Arial" font-size="13px" font-style="normal" font-weight="normal" text-decoration="none" x="253" y="608">-NON_DISPONIBLE</text></g></g><g transform="translate(-214,-54) scale(1,1)"><g><path fill="none" stroke="none"/><text fill="#000000" stroke="none" font-family="Arial" font-size="13px" font-style="normal" font-weight="normal" text-decoration="none" x="253" y="623">-NON_ELIGIBLE</text></g></g><g transform="translate(-214,-54) scale(1,1)"><path fill="none" stroke="#000000" d="M 633 149 L 791 256" stroke-miterlimit="10"/></g><g transform="translate(-214,-54) scale(1,1)"><path fill="#FFFFFF" stroke="none" d="M 778.2040197570059 252.07487413923815 C 778.2040197570059 248.20888053923815 781.3380261570059 245.07487413923815 785.2040197570059 245.07487413923815 C 789.0700133570059 245.07487413923815 792.2040197570059 248.20888053923815 792.2040197570059 252.07487413923815 C 792.2040197570059 255.94086773923814 789.0700133570059 259.07487413923815 785.2040197570059 259.07487413923815 C 781.3380261570059 259.07487413923815 778.2040197570059 255.94086773923814 778.2040197570059 252.07487413923815 Z"/></g><g transform="translate(-214,-54) scale(1,1)"><path fill="none" stroke="#000000" d="M 778.2040197570059 252.07487413923815 C 778.2040197570059 248.20888053923815 781.3380261570059 245.07487413923815 785.2040197570059 245.07487413923815 C 789.0700133570059 245.07487413923815 792.2040197570059 248.20888053923815 792.2040197570059 252.07487413923815 C 792.2040197570059 255.94086773923814 789.0700133570059 259.07487413923815 785.2040197570059 259.07487413923815 C 781.3380261570059 259.07487413923815 778.2040197570059 255.94086773923814 778.2040197570059 252.07487413923815 Z" stroke-miterlimit="10"/></g><g transform="translate(-214,-54) scale(1,1)"><path fill="none" stroke="#000000" d="M 779.4080395140118 248.1497482784763 L 791 256" stroke-miterlimit="10"/></g><g transform="translate(-214,-54) scale(1,1)"><path fill="none" stroke="#000000" d="M 781.278893896244 257.87085438223227 L 789.1291456177678 246.278893896244" stroke-miterlimit="10"/></g><g transform="translate(-214,-54) scale(1,1)"><path fill="none" stroke="#000000" d="M 535 512 L 390 389" stroke-miterlimit="10"/></g><g transform="translate(-214,-54) scale(1,1)"><path fill="#FFFFFF" stroke="none" d="M 388.33811425965104 393.52819347542817 C 388.33811425965104 389.66219987542814 391.472120659651 386.52819347542817 395.33811425965104 386.52819347542817 C 399.20410785965106 386.52819347542817 402.33811425965104 389.66219987542814 402.33811425965104 393.52819347542817 C 402.33811425965104 397.3941870754282 399.20410785965106 400.52819347542817 395.33811425965104 400.52819347542817 C 391.472120659651 400.52819347542817 388.33811425965104 397.3941870754282 388.33811425965104 393.52819347542817 Z"/></g><g transform="translate(-214,-54) scale(1,1)"><path fill="none" stroke="#000000" d="M 388.33811425965104 393.52819347542817 C 388.33811425965104 389.66219987542814 391.472120659651 386.52819347542817 395.33811425965104 386.52819347542817 C 399.20410785965106 386.52819347542817 402.33811425965104 389.66219987542814 402.33811425965104 393.52819347542817 C 402.33811425965104 397.3941870754282 399.20410785965106 400.52819347542817 395.33811425965104 400.52819347542817 C 391.472120659651 400.52819347542817 388.33811425965104 397.3941870754282 388.33811425965104 393.52819347542817 Z" stroke-miterlimit="10"/></g><g transform="translate(-214,-54) scale(1,1)"><path fill="none" stroke="#000000" d="M 400.67622851930213 398.0563869508563 L 390 389" stroke-miterlimit="10"/></g><g transform="translate(-214,-54) scale(1,1)"><path fill="none" stroke="#000000" d="M 399.8663077350792 388.19007921577713 L 390.80992078422287 398.8663077350792" stroke-miterlimit="10"/></g><g transform="translate(-214,-54) scale(1,1)"><path fill="none" stroke="#000000" d="M 310 551 L 309 459" stroke-miterlimit="10"/></g><g transform="translate(-214,-54) scale(1,1)"><path fill="#FFFFFF" stroke="none" d="M 302.0760824621801 465.99958652057023 C 302.0760824621801 462.1335929205702 305.2100888621801 458.99958652057023 309.0760824621801 458.99958652057023 C 312.94207606218015 458.99958652057023 316.0760824621801 462.1335929205702 316.0760824621801 465.99958652057023 C 316.0760824621801 469.86558012057026 312.94207606218015 472.99958652057023 309.0760824621801 472.99958652057023 C 305.2100888621801 472.99958652057023 302.0760824621801 469.86558012057026 302.0760824621801 465.99958652057023 Z"/></g><g transform="translate(-214,-54) scale(1,1)"><path fill="none" stroke="#000000" d="M 302.0760824621801 465.99958652057023 C 302.0760824621801 462.1335929205702 305.2100888621801 458.99958652057023 309.0760824621801 458.99958652057023 C 312.94207606218015 458.99958652057023 316.0760824621801 462.1335929205702 316.0760824621801 465.99958652057023 C 316.0760824621801 469.86558012057026 312.94207606218015 472.99958652057023 309.0760824621801 472.99958652057023 C 305.2100888621801 472.99958652057023 302.0760824621801 469.86558012057026 302.0760824621801 465.99958652057023 Z" stroke-miterlimit="10"/></g><g transform="translate(-214,-54) scale(1,1)"><path fill="none" stroke="#000000" d="M 309.15216492436025 472.99917304114047 L 309 459" stroke-miterlimit="10"/></g><g transform="translate(-214,-54) scale(1,1)"><path fill="none" stroke="#000000" d="M 316.07566898275036 465.9235040583901 L 302.0764959416099 466.07566898275036" stroke-miterlimit="10"/></g><g transform="translate(-214,-54) scale(1,1)"><path fill="none" stroke="#000000" d="M 649 517 L 791 408" stroke-miterlimit="10"/></g><g transform="translate(-214,-54) scale(1,1)"><path fill="#FFFFFF" stroke="none" d="M 778.4472739647792 412.2623037875991 C 778.4472739647792 408.39631018759906 781.5812803647792 405.2623037875991 785.4472739647792 405.2623037875991 C 789.3132675647793 405.2623037875991 792.4472739647792 408.39631018759906 792.4472739647792 412.2623037875991 C 792.4472739647792 416.1282973875991 789.3132675647793 419.2623037875991 785.4472739647792 419.2623037875991 C 781.5812803647792 419.2623037875991 778.4472739647792 416.1282973875991 778.4472739647792 412.2623037875991 Z"/></g><g transform="translate(-214,-54) scale(1,1)"><path fill="none" stroke="#000000" d="M 778.4472739647792 412.2623037875991 C 778.4472739647792 408.39631018759906 781.5812803647792 405.2623037875991 785.4472739647792 405.2623037875991 C 789.3132675647793 405.2623037875991 792.4472739647792 408.39631018759906 792.4472739647792 412.2623037875991 C 792.4472739647792 416.1282973875991 789.3132675647793 419.2623037875991 785.4472739647792 419.2623037875991 C 781.5812803647792 419.2623037875991 778.4472739647792 416.1282973875991 778.4472739647792 412.2623037875991 Z" stroke-miterlimit="10"/></g><g transform="translate(-214,-54) scale(1,1)"><path fill="none" stroke="#000000" d="M 779.8945479295585 416.5246075751981 L 791 408" stroke-miterlimit="10"/></g><g transform="translate(-214,-54) scale(1,1)"><path fill="none" stroke="#000000" d="M 789.7095777523783 417.81502982281984 L 781.1849701771802 406.7095777523783" stroke-miterlimit="10"/></g><g transform="translate(-214,-54) scale(1,1)"><path fill="none" stroke="#000000" d="M 535 151 L 390 256" stroke-miterlimit="10"/></g><g transform="translate(-214,-54) scale(1,1)"><path fill="#FFFFFF" stroke="none" d="M 388.66959485080116 251.8944313149371 C 388.66959485080116 248.0284377149371 391.80360125080114 244.8944313149371 395.66959485080116 244.8944313149371 C 399.5355884508012 244.8944313149371 402.66959485080116 248.0284377149371 402.66959485080116 251.8944313149371 C 402.66959485080116 255.7604249149371 399.5355884508012 258.8944313149371 395.66959485080116 258.8944313149371 C 391.80360125080114 258.8944313149371 388.66959485080116 255.7604249149371 388.66959485080116 251.8944313149371 Z"/></g><g transform="translate(-214,-54) scale(1,1)"><path fill="none" stroke="#000000" d="M 388.66959485080116 251.8944313149371 C 388.66959485080116 248.0284377149371 391.80360125080114 244.8944313149371 395.66959485080116 244.8944313149371 C 399.5355884508012 244.8944313149371 402.66959485080116 248.0284377149371 402.66959485080116 251.8944313149371 C 402.66959485080116 255.7604249149371 399.5355884508012 258.8944313149371 395.66959485080116 258.8944313149371 C 391.80360125080114 258.8944313149371 388.66959485080116 255.7604249149371 388.66959485080116 251.8944313149371 Z" stroke-miterlimit="10"/></g><g transform="translate(-214,-54) scale(1,1)"><path fill="none" stroke="#000000" d="M 401.3391897016023 247.7888626298742 L 390 256" stroke-miterlimit="10"/></g><g transform="translate(-214,-54) scale(1,1)"><path fill="none" stroke="#000000" d="M 391.56402616573826 246.22483646413593 L 399.77516353586407 257.56402616573826" stroke-miterlimit="10"/></g></g></svg>